<svg xmlns="http://www.w3.org/2000/svg" xmlns:xlink="http://www.w3.org/1999/xlink" width="500" zoomAndPan="magnify" viewBox="0 0 375 149.999998" height="200" preserveAspectRatio="xMidYMid meet" version="1.0"><defs><g/></defs><rect x="-37.5" width="450" fill="#ffffff" y="-15" height="179.999997" fill-opacity="1"/><rect x="-37.5" width="450" fill="#ffffff" y="-15" height="179.999997" fill-opacity="1"/><g fill="#000000" fill-opacity="1"><g transform="translate(22.858854, 123.059142)"><g><path d="M 15.375 0 L 15.375 -66.59375 L 0 -66.59375 L 0 -76.09375 L 15.375 -76.09375 L 15.375 -91.15625 C 15.375 -97.78125 17.40625 -103.078125 21.46875 -107.046875 C 25.539062 -111.015625 30.941406 -113 37.671875 -113 C 44.203125 -113 49.523438 -111.21875 53.640625 -107.65625 C 57.753906 -104.09375 60.164062 -99.347656 60.875 -93.421875 L 50.78125 -89.203125 C 50.375 -93.316406 49.015625 -96.628906 46.703125 -99.140625 C 44.398438 -101.648438 41.585938 -102.90625 38.265625 -102.90625 C 34.847656 -102.90625 32.082031 -101.675781 29.96875 -99.21875 C 27.863281 -96.757812 26.8125 -93.421875 26.8125 -89.203125 L 26.8125 -76.09375 L 55.75 -76.09375 L 55.75 -66.59375 L 26.8125 -66.59375 L 26.8125 0 Z M 15.375 0 "/></g></g></g><g fill="#000000" fill-opacity="1"><g transform="translate(73.331851, 123.059142)"><g><path d="M 30.59375 2.40625 C 23.257812 2.40625 17.457031 0.144531 13.1875 -4.375 C 8.914062 -8.894531 6.78125 -15.222656 6.78125 -23.359375 L 6.78125 -76.09375 L 18.375 -76.09375 L 18.375 -24.265625 C 18.375 -19.035156 19.753906 -14.9375 22.515625 -11.96875 C 25.285156 -9.007812 29.128906 -7.53125 34.046875 -7.53125 C 40.472656 -7.53125 45.644531 -9.5625 49.5625 -13.625 C 53.488281 -17.695312 55.453125 -23.148438 55.453125 -29.984375 L 55.453125 -76.09375 L 66.890625 -76.09375 L 66.890625 0 L 56.5 0 L 55.453125 -10.546875 L 55.296875 -10.546875 C 52.785156 -6.429688 49.445312 -3.242188 45.28125 -0.984375 C 41.113281 1.273438 36.21875 2.40625 30.59375 2.40625 Z M 30.59375 2.40625 "/></g></g></g><g fill="#000000" fill-opacity="1"><g transform="translate(137.364962, 123.059142)"><g><path d="M 7.53125 0 L 7.53125 -110.75 L 18.984375 -110.75 L 18.984375 0 Z M 7.53125 0 "/></g></g></g><g fill="#000000" fill-opacity="1"><g transform="translate(153.485681, 123.059142)"><g><path d="M 42.34375 2.5625 C 34.800781 2.5625 28.191406 0.851562 22.515625 -2.5625 C 16.847656 -5.976562 12.429688 -10.800781 9.265625 -17.03125 C 6.097656 -23.257812 4.515625 -30.539062 4.515625 -38.875 C 4.515625 -46.90625 5.945312 -53.910156 8.8125 -59.890625 C 11.675781 -65.867188 15.691406 -70.488281 20.859375 -73.75 C 26.035156 -77.019531 32.09375 -78.65625 39.03125 -78.65625 C 45.757812 -78.65625 51.582031 -77.019531 56.5 -73.75 C 61.425781 -70.488281 65.269531 -65.867188 68.03125 -59.890625 C 70.789062 -53.910156 72.171875 -46.851562 72.171875 -38.71875 C 72.171875 -37.8125 72.171875 -36.957031 72.171875 -36.15625 C 72.171875 -35.351562 72.117188 -34.703125 72.015625 -34.203125 L 16.265625 -34.203125 C 16.867188 -26.265625 19.503906 -19.882812 24.171875 -15.0625 C 28.847656 -10.238281 34.851562 -7.828125 42.1875 -7.828125 C 47.507812 -7.828125 52.15625 -9.207031 56.125 -11.96875 C 60.09375 -14.738281 62.929688 -18.429688 64.640625 -23.046875 L 74.4375 -18.6875 C 72.320312 -12.15625 68.375 -6.976562 62.59375 -3.15625 C 56.820312 0.65625 50.070312 2.5625 42.34375 2.5625 Z M 16.265625 -44.296875 L 59.96875 -44.296875 C 59.46875 -51.828125 57.382812 -57.675781 53.71875 -61.84375 C 50.050781 -66.019531 45.15625 -68.109375 39.03125 -68.109375 C 32.59375 -68.109375 27.390625 -65.972656 23.421875 -61.703125 C 19.460938 -57.429688 17.078125 -51.628906 16.265625 -44.296875 Z M 16.265625 -44.296875 "/></g></g></g><g fill="#000000" fill-opacity="1"><g transform="translate(220.984155, 123.059142)"><g><path d="M 1.5 0 L 25.765625 -39.46875 L 3.015625 -76.09375 L 15.828125 -76.09375 L 32.84375 -47.3125 L 49.875 -76.09375 L 62.53125 -76.09375 L 39.78125 -39.46875 L 64.03125 0 L 51.078125 0 L 32.84375 -31.484375 L 14.3125 0 Z M 1.5 0 "/></g></g></g><g fill="#000000" fill-opacity="1"><g transform="translate(276.127852, 123.059142)"><g><path d="M 40.53125 2.5625 C 33.300781 2.5625 27 0.878906 21.625 -2.484375 C 16.25 -5.847656 12.050781 -10.59375 9.03125 -16.71875 C 6.019531 -22.851562 4.515625 -29.988281 4.515625 -38.125 C 4.515625 -46.351562 6.019531 -53.484375 9.03125 -59.515625 C 12.050781 -65.546875 16.25 -70.242188 21.625 -73.609375 C 27 -76.972656 33.300781 -78.65625 40.53125 -78.65625 C 47.863281 -78.65625 54.21875 -76.972656 59.59375 -73.609375 C 64.96875 -70.242188 69.160156 -65.546875 72.171875 -59.515625 C 75.179688 -53.484375 76.6875 -46.351562 76.6875 -38.125 C 76.6875 -29.988281 75.179688 -22.851562 72.171875 -16.71875 C 69.160156 -10.59375 64.96875 -5.847656 59.59375 -2.484375 C 54.21875 0.878906 47.863281 2.5625 40.53125 2.5625 Z M 40.53125 -7.828125 C 47.96875 -7.828125 53.921875 -10.585938 58.390625 -16.109375 C 62.859375 -21.640625 65.09375 -28.976562 65.09375 -38.125 C 65.09375 -47.257812 62.859375 -54.539062 58.390625 -59.96875 C 53.921875 -65.394531 47.96875 -68.109375 40.53125 -68.109375 C 33.09375 -68.109375 27.140625 -65.394531 22.671875 -59.96875 C 18.203125 -54.539062 15.96875 -47.257812 15.96875 -38.125 C 15.96875 -28.976562 18.203125 -21.640625 22.671875 -16.109375 C 27.140625 -10.585938 33.09375 -7.828125 40.53125 -7.828125 Z M 40.53125 -7.828125 "/></g></g></g></svg>